<svg id="Capa_1" enable-background="new 0 0 512 512" height="512" viewBox="0 0 512 512" width="512" xmlns="http://www.w3.org/2000/svg"><g><g><path d="m7.311 398.139 70.46-59.186c8.666-7.278 21.592-6.155 28.871 2.511 7.279 8.665 6.156 21.591-2.51 28.871l-27.385 23.004h85.31c11.318 0 20.492 9.175 20.492 20.492s-9.174 20.492-20.492 20.492h-85.309l27.385 23.003c8.666 7.279 9.79 20.205 2.51 28.871-4.054 4.826-9.857 7.312-15.701 7.312-4.652 0-9.329-1.576-13.17-4.802l-70.461-59.187c-4.634-3.893-7.311-9.637-7.311-15.69s2.677-11.798 7.311-15.691z" fill="#8ac9fe"/><path d="m504.685 82.479-70.46-59.186c-8.666-7.278-21.592-6.155-28.871 2.511-7.279 8.665-6.156 21.591 2.51 28.871l27.385 23.003h-85.31c-11.318 0-20.492 9.175-20.492 20.492s9.174 20.492 20.492 20.492h85.309l-27.385 23.003c-8.666 7.279-9.79 20.205-2.51 28.871 4.054 4.826 9.857 7.312 15.701 7.312 4.652 0 9.329-1.576 13.17-4.802l70.46-59.186c4.635-3.893 7.311-9.637 7.311-15.691.002-6.052-2.675-11.796-7.31-15.69z" fill="#fd9468"/><g fill="#fe7d43"><path d="m411.959 118.662h-62.024c-10.531 0-19.209-7.947-20.352-18.18 2.213.824 4.622 1.276 7.124 1.276h86.174c3.126 0 4.549 3.903 2.155 5.915z"/><path d="m512 98.166c0 6.053-2.676 11.797-7.319 15.699l-70.455 59.183c-3.84 3.222-8.524 4.797-13.166 4.797-5.847 0-11.653-2.481-15.709-7.309-2.687-3.212-4.231-7-4.663-10.871 2.285.855 4.705 1.277 7.134 1.277 4.653 0 9.327-1.575 13.167-4.797l70.465-59.183c4.633-3.902 7.309-9.646 7.309-15.699 0-1.4-.144-2.779-.422-4.118l6.342 5.332c4.641 3.891 7.317 9.636 7.317 15.689z"/></g><g fill="#60b7ff"><path d="m100.041 434.325h62.024c10.531 0 19.209-7.947 20.352-18.18-2.213.824-4.622 1.276-7.124 1.276h-86.174c-3.126 0-4.549 3.903-2.155 5.915z"/><path d="m0 413.829c0 6.053 2.676 11.798 7.319 15.699l70.455 59.183c3.84 3.222 8.524 4.797 13.166 4.797 5.847 0 11.653-2.481 15.709-7.309 2.687-3.212 4.231-7 4.663-10.871-2.285.855-4.705 1.276-7.134 1.276-4.653 0-9.327-1.575-13.167-4.797l-70.465-59.183c-4.632-3.902-7.309-9.646-7.309-15.699 0-1.4.144-2.779.422-4.118l-6.342 5.332c-4.641 3.893-7.317 9.637-7.317 15.69z"/></g></g><g><g><path d="m357.971 271.587h-348.557c-5.19 0-9.398-4.208-9.398-9.398v-225.124c0-5.19 4.208-9.398 9.398-9.398h25.449l147.554 96.281 164.111-96.281h11.444c5.19 0 9.398 4.208 9.398 9.398v225.125c-.001 5.19-4.208 9.397-9.399 9.397z" fill="#fee45a"/><path d="m367.372 37.064v225.122c0 5.192-4.206 9.398-9.398 9.398h-17.749c5.191 0 9.398-4.206 9.398-9.398v-225.122c0-5.191-4.206-9.398-9.398-9.398h17.749c5.192 0 9.398 4.207 9.398 9.398z" fill="#fed402"/><path d="m13.008 271.587 166.282-131.455c2.581-2.04 6.225-2.04 8.806 0l166.282 131.456h-341.37z" fill="#fed402"/><path d="m354.38 271.584h-29.729l-155.822-123.184 10.463-8.271c2.582-2.041 6.221-2.041 8.803 0z" fill="#fac600"/><path d="m13.008 27.667 166.282 175.824c2.581 2.138 6.225 2.138 8.806 0l166.281-175.824z" fill="#fef0ae"/><path d="m354.373 27.666-166.277 175.822c-2.582 2.139-6.23 2.139-8.803 0l-7.596-8.024 158.689-167.798z" fill="#fee97d"/></g><g><path d="m502.583 484.334h-348.557c-5.19 0-9.398-4.208-9.398-9.398v-225.125c0-5.19 4.208-9.398 9.398-9.398h14.803l160.754 35.481 145.414-35.481h27.586c5.19 0 9.398 4.208 9.398 9.398v225.125c0 5.19-4.208 9.398-9.398 9.398z" fill="#fee45a"/><path d="m511.984 249.81v225.122c0 5.192-4.206 9.398-9.398 9.398h-17.749c5.191 0 9.398-4.206 9.398-9.398v-225.122c0-5.191-4.206-9.398-9.398-9.398h17.749c5.191.001 9.398 4.207 9.398 9.398z" fill="#fed402"/><path d="m157.62 484.334 166.282-131.456c2.581-2.04 6.225-2.04 8.806 0l166.282 131.456z" fill="#fed402"/><path d="m498.992 484.33h-29.729l-155.823-123.183 10.463-8.271c2.582-2.041 6.221-2.041 8.803 0z" fill="#fac600"/><path d="m157.62 240.413 166.282 175.825c2.581 2.138 6.225 2.138 8.806 0l166.282-175.825z" fill="#fef0ae"/><path d="m498.984 240.413-166.277 175.821c-2.582 2.139-6.23 2.139-8.803 0l-7.596-8.024 158.689-167.797z" fill="#fee97d"/></g></g></g></svg>