<svg id="Capa_1" enable-background="new 0 0 512 512" height="512" viewBox="0 0 512 512" width="512" xmlns="http://www.w3.org/2000/svg"><g><path d="m256 392.5 26.502 45.129-26.502 45.121h-210.88c-24.88 0-45.12-20.24-45.12-45.12s20.24-45.13 45.12-45.13z" fill="#3ba9ff"/><path d="m512 437.63c0 24.88-20.24 45.12-45.12 45.12h-210.88v-90.25h210.88c24.88 0 45.12 20.25 45.12 45.13z" fill="#0081ff"/><path d="m256 210.88 23 45.12-23 45.12h-210.88c-24.88 0-45.12-20.24-45.12-45.12s20.24-45.12 45.12-45.12z" fill="#3ba9ff"/><path d="m512 256c0 24.88-20.24 45.12-45.12 45.12h-210.88v-90.24h210.88c24.88 0 45.12 20.24 45.12 45.12z" fill="#0081ff"/><path d="m256 29.25 23 45.121-23 45.129h-210.88c-24.88 0-45.12-20.25-45.12-45.13s20.24-45.12 45.12-45.12z" fill="#3ba9ff"/><path d="m512 74.37c0 24.88-20.24 45.13-45.12 45.13h-210.88v-90.25h210.88c24.88 0 45.12 20.24 45.12 45.12z" fill="#0081ff"/><circle cx="142.346" cy="256" fill="#ff5e94" r="74.371"/><ellipse cx="362.71" cy="74.371" fill="#ff3980" rx="74.37" ry="74.37" transform="matrix(.707 -.707 .707 .707 53.647 278.258)"/><path d="m256 363.26 15 73.289-15 75.451c-41.01 0-74.37-33.36-74.37-74.37s33.36-74.37 74.37-74.37z" fill="#ff5e94"/><path d="m330.37 437.63c0 41.01-33.36 74.37-74.37 74.37v-148.74c41.01 0 74.37 33.36 74.37 74.37z" fill="#ff3980"/></g></svg>