<svg id="Capa_1" enable-background="new 0 0 511.999 511.999" height="512" viewBox="0 0 511.999 511.999" width="512" xmlns="http://www.w3.org/2000/svg"><g><g><path d="m333.785 429.495-242.579-55.742c-8.074-1.855-13.115-9.904-11.26-17.978l79.078-344.131c1.855-8.074 9.904-13.115 17.978-11.26l242.578 55.742c8.074 1.855 13.115 9.904 11.26 17.978l-79.078 344.131c-1.854 8.074-9.903 13.115-17.977 11.26z" fill="#9dc6fb"/></g><g><path d="m419.584 56.127-13.044-2.997-75.986 330.677c-1.908 8.301-10.184 13.485-18.485 11.577l-229.125-52.651-2.997 13.044c-1.855 8.072 3.185 16.12 11.258 17.975l242.583 55.743c8.072 1.855 16.12-3.185 17.975-11.258l79.079-344.136c1.854-8.071-3.186-16.119-11.258-17.974z" fill="#80b4fb"/></g><g><path d="m338.351 458.014h-248.9c-8.284 0-15-6.716-15-15v-353.099c0-8.284 6.716-15 15-15h248.901c8.284 0 15 6.716 15 15v353.099c-.001 8.284-6.717 15-15.001 15z" fill="#ecbe6b"/></g><g><path d="m338.354 74.915h-13.384v339.295c0 8.518-6.905 15.423-15.423 15.423h-235.096v13.384c0 8.283 6.715 14.997 14.997 14.997h248.906c8.283 0 14.997-6.715 14.997-14.997v-353.105c0-8.283-6.714-14.997-14.997-14.997z" fill="#eab14d"/></g><g><g><path d="m180.322 162.497h-68.018c-4.259 0-7.711-3.452-7.711-7.711s3.453-7.711 7.711-7.711h68.018c4.259 0 7.711 3.452 7.711 7.711s-3.452 7.711-7.711 7.711z" fill="#e7a52e"/></g><g><path d="m180.322 204.956h-68.018c-4.259 0-7.711-3.452-7.711-7.711s3.453-7.711 7.711-7.711h68.018c4.259 0 7.711 3.452 7.711 7.711s-3.452 7.711-7.711 7.711z" fill="#e7a52e"/></g><g><path d="m180.322 247.417h-68.018c-4.259 0-7.711-3.452-7.711-7.711s3.453-7.711 7.711-7.711h68.018c4.259 0 7.711 3.452 7.711 7.711s-3.452 7.711-7.711 7.711z" fill="#e7a52e"/></g><g><path d="m180.322 289.878h-68.018c-4.259 0-7.711-3.452-7.711-7.711s3.453-7.711 7.711-7.711h68.018c4.259 0 7.711 3.452 7.711 7.711s-3.452 7.711-7.711 7.711z" fill="#e7a52e"/></g><g><path d="m180.322 332.337h-68.018c-4.259 0-7.711-3.452-7.711-7.711s3.453-7.711 7.711-7.711h68.018c4.259 0 7.711 3.452 7.711 7.711s-3.452 7.711-7.711 7.711z" fill="#e7a52e"/></g><g><path d="m180.322 374.798h-68.018c-4.259 0-7.711-3.452-7.711-7.711s3.453-7.711 7.711-7.711h68.018c4.259 0 7.711 3.452 7.711 7.711s-3.452 7.711-7.711 7.711z" fill="#e7a52e"/></g></g><g><g><g><path d="m336.231 128.9h-162.157c-8.519 0-15.426 6.906-15.426 15.426v352.248c0 8.519 6.906 15.426 15.426 15.426h248.049c8.519 0 15.426-6.906 15.426-15.426v-266.357c0-5.455-2.167-10.686-6.024-14.544l-80.75-80.749c-3.857-3.857-9.089-6.024-14.544-6.024z" fill="#f9f6f9"/></g></g><g><g><path d="m431.525 215.674-27.695-27.695c3.857 3.857 6.023 9.088 6.023 14.543v266.356c0 8.52-6.906 15.426-15.426 15.426h-235.779v12.27c0 8.519 6.906 15.426 15.426 15.426h248.049c8.519 0 15.426-6.906 15.426-15.426v-266.357c0-5.455-2.167-10.686-6.024-14.543z" fill="#e7ecf6"/></g></g><g><g><path d="m431.525 215.674-80.75-80.749c-2.84-2.84-6.427-4.754-10.297-5.571v86.333c0 5.68 4.604 10.284 10.284 10.284h86.334c-.817-3.871-2.732-7.458-5.571-10.297z" fill="#e7ecf6"/></g></g><g><g><path d="m431.525 215.674-17.935-17.934h-73.112v17.947c0 5.679 4.604 10.284 10.284 10.284h86.334c-.817-3.87-2.732-7.458-5.571-10.297z" fill="#d8e2f1"/></g></g></g><path d="m384.001 337.702c4.259 0 7.711-3.452 7.711-7.711s-3.453-7.711-7.711-7.711h-152.659v-27.037h152.659c4.259 0 7.711-3.452 7.711-7.711s-3.453-7.711-7.711-7.711h-152.659v-10.271c0-4.26-3.453-7.712-7.711-7.712s-7.711 3.452-7.711 7.712v10.271h-22.457c-4.259 0-7.711 3.452-7.711 7.711s3.453 7.711 7.711 7.711h22.457v27.037h-22.457c-4.259 0-7.711 3.452-7.711 7.711s3.453 7.711 7.711 7.711h22.457v27.038h-22.457c-4.259 0-7.711 3.452-7.711 7.711s3.453 7.711 7.711 7.711h22.457v27.037h-22.457c-4.259 0-7.711 3.452-7.711 7.711s3.453 7.712 7.711 7.712h22.457v10.257c0 4.26 3.453 7.712 7.711 7.712s7.711-3.452 7.711-7.712v-10.257h152.659c4.259 0 7.711-3.452 7.711-7.712 0-4.259-3.453-7.711-7.711-7.711h-152.659v-27.037h152.659c4.259 0 7.711-3.452 7.711-7.711s-3.453-7.711-7.711-7.711h-152.659v-27.038z" fill="#d8e2f1"/></g></svg>