<svg id="color_1_" enable-background="new 0 0 24 24" height="512" viewBox="0 0 24 24" width="512" xmlns="http://www.w3.org/2000/svg"><g><path d="m24 4.25v11.5c0 1.24-1.01 2.25-2.25 2.25h-15.5c-.1 0-.2-.01-.29-.02-1.05-.13-1.87-.99-1.95-2.05l-.01-.18v-11.5c0-1.24 1.01-2.25 2.25-2.25h15.5c1.24 0 2.25 1.01 2.25 2.25z" fill="#eceff1"/><path d="m14.125 2h-7.875c-1.24 0-2.25 1.01-2.25 2.25v11.5l.01.18c.08 1.06.9 1.92 1.95 2.05.09.01.19.02.29.02h7.875z" fill="#cdd0d2"/></g><g><path d="m24 12.94v2.81c0 1.24-1.01 2.25-2.25 2.25h-15.5c-.1 0-.2-.01-.29-.02l10.3-10.3c.68-.68 1.8-.68 2.48 0z" fill="#388e3c"/><path d="m17.415 7.172c-.421.02-.836.19-1.155.508l-10.3 10.3c.09.01.19.02.29.02h11.165z" fill="#317c34"/></g><path d="m18.06 18h-11.81c-.1 0-.2-.01-.29-.02-1.05-.13-1.87-.99-1.95-2.05l4.75-4.75c.68-.68 1.8-.68 2.48 0z" fill="#4caf50"/><path d="m10 10.67c-.45 0-.9.17-1.24.51l-4.75 4.75c.08 1.06.9 1.92 1.95 2.05.09.01.19.02.29.02h3.802v-7.329c-.017-.001-.035-.001-.052-.001z" fill="#429846"/><path d="m9 5c-1.103 0-2 .897-2 2s.897 2 2 2 2-.897 2-2-.897-2-2-2z" fill="#ffc107"/><path d="m9 5c-1.103 0-2 .897-2 2s.897 2 2 2c.021 0 .042 0 .062-.001v-3.998c-.02-.001-.041-.001-.062-.001z" fill="#dea806"/><path d="m6.25 19.5c-1.601 0-3.025-1.025-3.542-2.551l-.035-.115c-.122-.404-.173-.744-.173-1.084v-6.817l-2.426 8.097c-.312 1.191.399 2.426 1.592 2.755l15.463 4.141c.193.05.386.074.576.074.996 0 1.906-.661 2.161-1.635l.9-2.865z" fill="#eceff1"/><path d="m2.5 8.933-2.426 8.097c-.312 1.191.399 2.426 1.592 2.755l7.585 2.031.766-2.316h-3.767c-1.601 0-3.025-1.025-3.542-2.551l-.035-.115c-.122-.404-.173-.744-.173-1.084z" fill="#cdd0d2"/></svg>